<svg id="Layer_1" data-name="Layer 1" xmlns="http://www.w3.org/2000/svg" viewBox="0 0 527.12 81.45"><defs><style>.cls-1{fill:none;stroke:#fff;stroke-miterlimit:10;}</style></defs><title>Untitled-1</title>
<path class="cls-1" d="M29,137.22a55.12,55.12,0,0,0,9.06-.39,25.08,25.08,0,0,0,7.41-2,12.78,12.78,0,0,0,5-4,10,10,0,0,0,1.83-6.13v-.42c0-1.25-.65-1.88-2-1.88H30a8.21,8.21,0,0,1-3.19-.55,6,6,0,0,1-2.17-1.49,5.56,5.56,0,0,1-1.23-2.13,8,8,0,0,1,0-4.93,5.56,5.56,0,0,1,1.23-2.13,6,6,0,0,1,2.17-1.49,8.2,8.2,0,0,1,3.19-.56H56.7q7,0,9.71,2.86t2.72,8.64v3.66a24.48,24.48,0,0,1-3.36,13.11,24.94,24.94,0,0,1-9.07,8.68,39.34,39.34,0,0,1-13.11,4.47A59.82,59.82,0,0,1,28.1,151a7.22,7.22,0,0,1-4.85-2.39,7,7,0,0,1-1.7-5.53,5.9,5.9,0,0,1,2.34-4.51A7.66,7.66,0,0,1,29,137.22Zm8.25,49.37a24.5,24.5,0,0,1-6.21-.64,7.23,7.23,0,0,1-3.7-2.13,8.08,8.08,0,0,1-1.79-3.95,34.49,34.49,0,0,1-.47-6.22v-6.89a34.71,34.71,0,0,1,.47-6.18,8.18,8.18,0,0,1,1.79-4,7.29,7.29,0,0,1,3.7-2.12,24.5,24.5,0,0,1,6.21-.64H85.05a24.58,24.58,0,0,1,6.22.64,7.33,7.33,0,0,1,3.7,2.12,8.27,8.27,0,0,1,1.79,4,34.81,34.81,0,0,1,.46,6.18v19.83Zm4.6-14.3a3.1,3.1,0,0,0,.38,1.92,2.52,2.52,0,0,0,1.66.38H80.45V168q0-1.45-.42-1.83a2.64,2.64,0,0,0-1.7-.39H43.93a2.45,2.45,0,0,0-1.66.39,2.86,2.86,0,0,0-.38,1.83ZM79.6,115.08a7.68,7.68,0,0,1,2.6-6.3,9.23,9.23,0,0,1,6-2.12,9.52,9.52,0,0,1,3.19.55,8.26,8.26,0,0,1,2.77,1.62,8.1,8.1,0,0,1,1.92,2.64,8.58,8.58,0,0,1,.72,3.61v35.59H79.6Z" transform="translate(-21.02 -105.9)"/><path class="cls-1" d="M135.79,158.58v-3.83h-24.6q-3.59,0-5.11-1.87a6.65,6.65,0,0,1-1.53-4.34,8,8,0,0,1,.34-2.34,5.15,5.15,0,0,1,1.15-2,5.93,5.93,0,0,1,2.08-1.44,7.65,7.65,0,0,1,3.07-.56h66.4a7.64,7.64,0,0,1,3.06.56,6.07,6.07,0,0,1,2.09,1.44,5.41,5.41,0,0,1,1.15,2,8.38,8.38,0,0,1,.34,2.34,6.66,6.66,0,0,1-1.54,4.34q-1.53,1.88-5.1,1.87H153v3.83h12.94a20.69,20.69,0,0,1,7,1.07,13.7,13.7,0,0,1,5,3,11.91,11.91,0,0,1,3,4.47,16.58,16.58,0,0,1,0,11.23,11.91,11.91,0,0,1-3,4.47,13.7,13.7,0,0,1-5,3,20.69,20.69,0,0,1-7,1.07H122.85a21.16,21.16,0,0,1-7-1.07,13.37,13.37,0,0,1-5-3,12.28,12.28,0,0,1-2.93-4.47,16.58,16.58,0,0,1,0-11.23,12.28,12.28,0,0,1,2.93-4.47,13.37,13.37,0,0,1,5-3,21.16,21.16,0,0,1,7-1.07ZM116.21,106.4a9.87,9.87,0,0,1,5.15,1.45,6.43,6.43,0,0,1,3,4.59h11.83a6,6,0,0,1,2.9-4.42,10.69,10.69,0,0,1,5.28-1.28,10.53,10.53,0,0,1,5.19,1.28,6,6,0,0,1,2.89,4.42h11.84a6.13,6.13,0,0,1,2.89-4.63,10.34,10.34,0,0,1,5.36-1.41,11.46,11.46,0,0,1,3.15.43,7.47,7.47,0,0,1,2.68,1.32,6.14,6.14,0,0,1,1.83,2.34,8,8,0,0,1,.69,3.49v24.6H120a22.92,22.92,0,0,1-6.17-.68,7.68,7.68,0,0,1-3.7-2.22,8.11,8.11,0,0,1-1.83-4,33.72,33.72,0,0,1-.47-6.13V114a8.16,8.16,0,0,1,.68-3.49,6.34,6.34,0,0,1,1.83-2.34,7.55,7.55,0,0,1,2.68-1.32A11.79,11.79,0,0,1,116.21,106.4Zm44.69,69.12c1.53,0,2.52-.31,3-.93a2.93,2.93,0,0,0,0-3.75c-.46-.62-1.45-.93-3-.93h-33c-1.53,0-2.53.31-3,.93a2.93,2.93,0,0,0,0,3.75c.45.62,1.45.93,3,.93ZM136.13,127.6v-4.77H124.55V125a2.88,2.88,0,0,0,.55,1.92,2.59,2.59,0,0,0,2,.64Zm28.09,0v-4.77H152.64v4.77Z" transform="translate(-21.02 -105.9)"/><path class="cls-1" d="M220.92,158.58v-3.83H196.31q-3.57,0-5.1-1.87a6.61,6.61,0,0,1-1.54-4.34,8.38,8.38,0,0,1,.34-2.34,5.28,5.28,0,0,1,1.15-2,6.07,6.07,0,0,1,2.09-1.44,7.64,7.64,0,0,1,3.06-.56h66.4a7.65,7.65,0,0,1,3.07.56,6,6,0,0,1,2.08,1.44,5.15,5.15,0,0,1,1.15,2,8,8,0,0,1,.34,2.34,6.65,6.65,0,0,1-1.53,4.34q-1.53,1.88-5.11,1.87h-24.6v3.83h12.94a20.73,20.73,0,0,1,7,1.07,13.7,13.7,0,0,1,5,3,12,12,0,0,1,3,4.47,16.58,16.58,0,0,1,0,11.23,12,12,0,0,1-3,4.47,13.7,13.7,0,0,1-5,3,20.73,20.73,0,0,1-7,1.07H208a21.16,21.16,0,0,1-7-1.07,13.37,13.37,0,0,1-5-3,12.28,12.28,0,0,1-2.93-4.47,16.58,16.58,0,0,1,0-11.23,12.28,12.28,0,0,1,2.93-4.47,13.37,13.37,0,0,1,5-3,21.16,21.16,0,0,1,7-1.07ZM201.34,106.4a9.87,9.87,0,0,1,5.15,1.45,6.46,6.46,0,0,1,3,4.59h11.83a6,6,0,0,1,2.9-4.42,10.68,10.68,0,0,1,5.27-1.28,10.57,10.57,0,0,1,5.2,1.28,6,6,0,0,1,2.89,4.42h11.83a6.14,6.14,0,0,1,2.9-4.63,10.32,10.32,0,0,1,5.36-1.41,11.46,11.46,0,0,1,3.15.43,7.47,7.47,0,0,1,2.68,1.32,6.14,6.14,0,0,1,1.83,2.34A8,8,0,0,1,266,114v24.6H205.08a22.92,22.92,0,0,1-6.17-.68,7.63,7.63,0,0,1-3.7-2.22,8.11,8.11,0,0,1-1.83-4,32.84,32.84,0,0,1-.47-6.13V114a8,8,0,0,1,.68-3.49,6.14,6.14,0,0,1,1.83-2.34,7.55,7.55,0,0,1,2.68-1.32A11.79,11.79,0,0,1,201.34,106.4ZM246,175.52c1.53,0,2.52-.31,3-.93a2.93,2.93,0,0,0,0-3.75c-.46-.62-1.45-.93-3-.93H213c-1.53,0-2.53.31-3,.93a2.93,2.93,0,0,0,0,3.75c.45.62,1.45.93,3,.93ZM221.26,127.6v-4.77H209.68V125a2.88,2.88,0,0,0,.55,1.92,2.59,2.59,0,0,0,2,.64Zm28.09,0v-4.77H237.77v4.77Z" transform="translate(-21.02 -105.9)"/><path class="cls-1" d="M299,169.48a30.64,30.64,0,0,0,7.75-7.36,36.28,36.28,0,0,0,4.93-9.75,59.13,59.13,0,0,0,2.64-12.51,145.85,145.85,0,0,0,.77-15.75v-6.64a7.5,7.5,0,0,1,2.55-6.17,9,9,0,0,1,5.88-2.09,9.25,9.25,0,0,1,3.15.55,7.86,7.86,0,0,1,2.68,1.62,8.45,8.45,0,0,1,1.87,2.6,8.09,8.09,0,0,1,.72,3.49V124c0,2.56-.05,5-.17,7.37s-.28,4.63-.51,6.85a32.87,32.87,0,0,1,9.37,5.57,26.5,26.5,0,0,1,6.51,8.69,41.7,41.7,0,0,1,3.49,12.43,83.26,83.26,0,0,1,.3,16.81H334.39q1.46-10.31-.13-17.07a18.71,18.71,0,0,0-5.91-10.43q-5.53,19.24-18.9,26.48a13.62,13.62,0,0,1-3.32,1.23,11.12,11.12,0,0,1-3.32.26,8.18,8.18,0,0,1-2.94-.77,6.1,6.1,0,0,1-2.17-1.74,7.52,7.52,0,0,1-1.32-2.35,6.7,6.7,0,0,1,.43-5.49A6.86,6.86,0,0,1,299,169.48Zm57.72-54.57a7.51,7.51,0,0,1,2.55-6.17,9,9,0,0,1,5.87-2.08,9.16,9.16,0,0,1,3.15.55,8.18,8.18,0,0,1,2.69,1.57,8.08,8.08,0,0,1,1.87,2.56,8.3,8.3,0,0,1,.72,3.57v21.54h2.81a6.89,6.89,0,0,1,3.24.68,5.93,5.93,0,0,1,2,1.75,7.12,7.12,0,0,1,1.11,2.38,10.07,10.07,0,0,1,0,5.19,7.17,7.17,0,0,1-1.11,2.39,5.72,5.72,0,0,1-2.09,1.74,6.8,6.8,0,0,1-3.19.68h-2.81v35.33H356.7Z" transform="translate(-21.02 -105.9)"/><path class="cls-1" d="M398.83,152.63a13.8,13.8,0,0,1-5.7-1.11,12,12,0,0,1-4.13-3,12.93,12.93,0,0,1-2.51-4.34,15.52,15.52,0,0,1-.85-5.11v-1.62a12.15,12.15,0,0,1,3.32-8.85q3.32-3.41,9.87-3.41h16.35v-2.89q0-1.62-2.13-1.62H391.77a5,5,0,0,1-4.34-1.91,6.75,6.75,0,0,1-1.36-4,7,7,0,0,1,1.36-4.13,4.94,4.94,0,0,1,4.34-1.92H420q6.46,0,9.32,3a10.75,10.75,0,0,1,2.85,7.75v16.77H405.3a1.93,1.93,0,0,0-2.21,2v.43a2,2,0,0,0,.51,1.4,2.23,2.23,0,0,0,1.7.56h28.18a5.34,5.34,0,0,1,2.51.55,5.44,5.44,0,0,1,1.75,1.41,6,6,0,0,1,1,1.91,7,7,0,0,1-.94,6.17c-.85,1.25-2.29,1.88-4.34,1.88Zm7.41,34.22a23.42,23.42,0,0,1-7.7-1.15,14.64,14.64,0,0,1-5.41-3.2,12.5,12.5,0,0,1-3.15-4.85,17.8,17.8,0,0,1-1-6.13,18.2,18.2,0,0,1,1-6.17,12.5,12.5,0,0,1,3.15-4.89,15.12,15.12,0,0,1,5.41-3.24,22.61,22.61,0,0,1,7.7-1.19h36.69a22.87,22.87,0,0,1,7.62,1.15,14.84,14.84,0,0,1,5.41,3.19,13.1,13.1,0,0,1,3.19,4.9,17.71,17.71,0,0,1,1.06,6.25A15,15,0,0,1,456,182.59q-4.26,4.26-13,4.26Zm32.09-11.5c1.76,0,3-.36,3.62-1.1a4,4,0,0,0,1-2.73,3.7,3.7,0,0,0-1-2.64c-.65-.68-1.86-1-3.62-1H410.84c-1.76,0-3,.34-3.62,1a3.7,3.7,0,0,0-1,2.64,4,4,0,0,0,1,2.73c.65.74,1.86,1.1,3.62,1.1ZM442,115.08c0-2.78.83-4.88,2.51-6.3a9.17,9.17,0,0,1,11.79,0,7.74,7.74,0,0,1,2.55,6.25v7.24h2.64a6.87,6.87,0,0,1,3.23.68,6.09,6.09,0,0,1,2,1.7,6.48,6.48,0,0,1,1.1,2.34,10.11,10.11,0,0,1,0,5.2,6.91,6.91,0,0,1-1.1,2.38,5.36,5.36,0,0,1-2.09,1.7,7.2,7.2,0,0,1-3.19.64h-2.64v16.35H442Z" transform="translate(-21.02 -105.9)"/><path class="cls-1" d="M489.67,185.06a22.12,22.12,0,0,1-7.32-1.19,15.87,15.87,0,0,1-5.92-3.66,17.26,17.26,0,0,1-4-6.26,25.27,25.27,0,0,1-1.45-9v-29a21.31,21.31,0,0,1,1.11-7.24,5,5,0,0,1-3.28-2.25,7.6,7.6,0,0,1-1.06-4,7.3,7.3,0,0,1,1.4-4.55,5.4,5.4,0,0,1,4.56-1.83h8v-1.11a8.54,8.54,0,0,1,2-6c1.33-1.45,3.31-2.17,5.92-2.17s4.68.72,6,2.17a8.42,8.42,0,0,1,2,6V116h7.84a5.38,5.38,0,0,1,4.55,1.83,7.23,7.23,0,0,1,1.4,4.55,7.6,7.6,0,0,1-1.06,4,5,5,0,0,1-3.28,2.25,25.36,25.36,0,0,1,.81,3.41,23.15,23.15,0,0,1,.3,3.83v29a25.05,25.05,0,0,1-1.45,9,17.25,17.25,0,0,1-3.95,6.26,16,16,0,0,1-5.92,3.66A22.12,22.12,0,0,1,489.67,185.06Zm0-12.77a4,4,0,0,0,2.42-.94c.83-.62,1.24-1.76,1.24-3.4V132.71a4.06,4.06,0,0,0-1.24-3.37,3.49,3.49,0,0,0-4.85,0,4.09,4.09,0,0,0-1.23,3.37V168c0,1.64.41,2.78,1.23,3.4A4,4,0,0,0,489.67,172.29Zm42.9-20.86h-4.08v35.16H513.76v-72.7a6.66,6.66,0,0,1,2.17-5.4,7.73,7.73,0,0,1,5.15-1.83,7.94,7.94,0,0,1,5.15,1.83,6.56,6.56,0,0,1,2.26,5.4v23.58h4.08V113.89a6.53,6.53,0,0,1,2.26-5.4,8.06,8.06,0,0,1,5.23-1.83,8.62,8.62,0,0,1,2.81.46,7.21,7.21,0,0,1,2.43,1.41,6.81,6.81,0,0,1,2.34,5.36v72.7H532.57Z" transform="translate(-21.02 -105.9)"/></svg>