<svg id="Layer_1" data-name="Layer 1" xmlns="http://www.w3.org/2000/svg" viewBox="0 0 200 60"><defs><style>.cls-1{fill:#fff;}.cls-2{fill:#1d1d1b;}.cls-3{fill:#ededed;}</style></defs><title>Artboard 1</title><path class="cls-1" d="M9.74,34.64A15.61,15.61,0,0,1,11,28a12.09,12.09,0,0,1,3.24-4.31,12.42,12.42,0,0,1,4.4-2.35,16.68,16.68,0,0,1,4.68-.71,16.52,16.52,0,0,1,4.64.71,12.5,12.5,0,0,1,4.4,2.35A12.25,12.25,0,0,1,35.62,28a15.45,15.45,0,0,1,1.28,6.64V44.7a15.48,15.48,0,0,1-1.28,6.64,12.25,12.25,0,0,1-3.26,4.31A12.5,12.5,0,0,1,28,58a16.52,16.52,0,0,1-4.64.71A16.52,16.52,0,0,1,18.68,58a12.5,12.5,0,0,1-4.4-2.35A12.25,12.25,0,0,1,11,51.34,15.48,15.48,0,0,1,9.74,44.7Zm18.89-.28a6.65,6.65,0,0,0-.47-2.61,5.4,5.4,0,0,0-1.23-1.84,5,5,0,0,0-1.71-1.08,5.48,5.48,0,0,0-3.8,0,5,5,0,0,0-1.71,1.08,5.4,5.4,0,0,0-1.23,1.84A6.65,6.65,0,0,0,18,34.36V45a5.82,5.82,0,0,0,.51,2.48,6,6,0,0,0,1.27,1.86,5.29,5.29,0,0,0,1.73,1.15,4.35,4.35,0,0,0,3.6,0,5.29,5.29,0,0,0,1.73-1.15,6.18,6.18,0,0,0,1.27-1.86A5.82,5.82,0,0,0,28.63,45Z"/><path class="cls-1" d="M66.73,33.4a11.76,11.76,0,0,1-1.36,5.76,12,12,0,0,1-3.55,4l7.7,14.66H60.36L54.28,45.48H49.1V57.84H40.79V28.12a16.09,16.09,0,0,1,.3-3.36,5.21,5.21,0,0,1,1-2.25,4.06,4.06,0,0,1,1.94-1.26,10.07,10.07,0,0,1,3-.39h7.46a16,16,0,0,1,4.86.71,10,10,0,0,1,6.39,5.95,14.32,14.32,0,0,1,.91,5.33ZM49.1,37.72h5.27a3.75,3.75,0,0,0,3.1-1.29,4.69,4.69,0,0,0,1-3v-.32a4.65,4.65,0,0,0-1-3,3.75,3.75,0,0,0-3.1-1.29h-4.1a1.28,1.28,0,0,0-.93.25,1.67,1.67,0,0,0-.24,1.08Z"/><path class="cls-1" d="M71,25.32a5.3,5.3,0,0,1,.35-2,4.53,4.53,0,0,1,.91-1.45,3.56,3.56,0,0,1,1.3-.89,4,4,0,0,1,1.54-.3,4,4,0,0,1,1.54.3,3.61,3.61,0,0,1,1.29.89,4.53,4.53,0,0,1,.91,1.45,5.3,5.3,0,0,1,.35,2V35.88l9.52-13.23a4.81,4.81,0,0,1,1.36-1.28,4.26,4.26,0,0,1,1.54-.6,3.83,3.83,0,0,1,1.58.05,3.52,3.52,0,0,1,1.4.64,4,4,0,0,1,1.13,1.28,4.59,4.59,0,0,1,.57,1.68,5,5,0,0,1-.08,1.81,3.74,3.74,0,0,1-.81,1.66l-7.66,9.69L99.07,57.84h-9.4L82.45,44.29l-3.24,4.08v9.47H71Z"/><path class="cls-1" d="M110.09,24.49a5.05,5.05,0,0,1,2.09-2.87,5.73,5.73,0,0,1,3.14-.94,5.29,5.29,0,0,1,3,1,5,5,0,0,1,2,2.85l10.57,33.35H122l-1.58-5.7H110l-1.54,5.7H99.68Zm2,19.89h6.2L115.2,32.94Z"/><polygon class="cls-1" points="129.66 42.86 129.66 25.48 124.36 25.48 124.36 22.72 137.84 22.72 137.84 25.48 132.53 25.48 132.53 42.86 129.66 42.86"/><path class="cls-1" d="M130,25.17h-5.29V23h12.89v2.14h-5.32V42.55H130Z"/><path class="cls-1" d="M145.59,43.18c-4.79,0-8.13-4.2-8.13-10.22,0-6.22,3.45-10.56,8.38-10.56S154,26.49,154,32.59C154,39.91,149.76,43.18,145.59,43.18Zm.15-18.1c-3.65,0-5.28,3.93-5.28,7.83s1.81,7.6,5.25,7.6c3.65,0,5.28-3.92,5.28-7.81C151,29,149.35,25.08,145.74,25.08Z"/><path class="cls-1" d="M153.67,32.59c0,6.72-3.64,10.28-8.08,10.28-4.6,0-7.83-4-7.83-9.91,0-6.2,3.43-10.25,8.08-10.25S153.67,26.79,153.67,32.59Zm-13.51.32c0,4.17,2,7.9,5.55,7.9s5.58-3.67,5.58-8.11c0-3.88-1.81-7.93-5.55-7.93S140.16,28.62,140.16,32.91Z"/><path class="cls-1" d="M162.82,43.18c-2.44,0-6.55-1.12-6.55-8.65V22.72h2.87V34.59c0,3.81,1.34,5.92,3.76,5.92,3.25,0,3.93-3.22,3.93-5.92V22.72h2.88V34.41C169.71,40,167.2,43.18,162.82,43.18Z"/><path class="cls-1" d="M158.84,23V34.59c0,4.37,1.74,6.22,4.06,6.22,2.58,0,4.23-1.91,4.23-6.22V23h2.28V34.41c0,6-2.82,8.46-6.59,8.46-3.56,0-6.25-2.29-6.25-8.34V23Z"/><path class="cls-1" d="M182.15,42.86l-.08-.16a25.26,25.26,0,0,1-1.2-4.75c-.49-2.57-1.3-3.47-3.2-3.55h-1.81v8.46H173V23l.23-.05a21.12,21.12,0,0,1,4.38-.42c2.48,0,4.1.52,5.24,1.69a5.41,5.41,0,0,1,1.46,3.92,5.4,5.4,0,0,1-2.94,5c1.09.66,1.81,2,2.21,3.91a35.7,35.7,0,0,0,1.32,5.29l.22.44Zm-4.29-11a3.3,3.3,0,0,0,3.63-3.4c0-2.72-2-3.32-3.71-3.34a9,9,0,0,0-1.92.17v6.57Z"/><path class="cls-1" d="M173.32,23.29a20.88,20.88,0,0,1,4.31-.41c2.4,0,4,.5,5,1.6a5.15,5.15,0,0,1,1.37,3.7,5.09,5.09,0,0,1-3.28,5v.08c1.35.53,2.15,1.92,2.56,3.94a34.22,34.22,0,0,0,1.34,5.36h-2.32a27.09,27.09,0,0,1-1.16-4.66c-.52-2.7-1.45-3.71-3.49-3.8h-2.12v8.46h-2.24Zm2.24,8.89h2.3a3.59,3.59,0,0,0,3.93-3.71c0-2.52-1.63-3.62-4-3.65a8.57,8.57,0,0,0-2.22.23Z"/><path class="cls-1" d="M190.78,43.15a8.42,8.42,0,0,1-4.61-1.3l-.17-.13.73-2.73.35.23a7,7,0,0,0,3.86,1.23c2.06,0,3.34-1.16,3.34-3,0-1.67-.81-2.61-3.1-3.6-3.26-1.3-4.78-3.15-4.78-5.82,0-3.3,2.44-5.61,5.93-5.61a7.46,7.46,0,0,1,4,1l.2.13-.81,2.66-.32-.2a6,6,0,0,0-3.16-.89,2.66,2.66,0,0,0-3,2.62c0,1.56.8,2.4,3.28,3.48,3.24,1.41,4.63,3.21,4.63,6S195.5,43.15,190.78,43.15Z"/><path class="cls-1" d="M186.91,39.48a7.31,7.31,0,0,0,4,1.28c2.3,0,3.64-1.36,3.64-3.33s-.93-2.87-3.28-3.89c-2.84-1.13-4.6-2.78-4.6-5.53,0-3,2.25-5.3,5.63-5.3a7.25,7.25,0,0,1,3.85.95l-.62,2.06a6.34,6.34,0,0,0-3.31-.93A3,3,0,0,0,189,27.72c0,1.83,1.06,2.72,3.47,3.77,2.94,1.27,4.44,2.87,4.44,5.73,0,3-2,5.62-6.1,5.62a8.28,8.28,0,0,1-4.44-1.24Z"/><path class="cls-1" d="M140.32,46.53h1.44v5.06h.05c.3-.41.6-.78.88-1.12l3.41-3.94h1.79l-4,4.45,4.36,6H146.5l-3.68-5.15L141.76,53v4h-1.44Z"/><path class="cls-1" d="M158.56,51.67c0,3.61-2.34,5.52-5.18,5.52s-5-2.14-5-5.32,2.21-5.51,5.19-5.51S158.56,48.55,158.56,51.67Zm-8.66.17c0,2.24,1.29,4.25,3.56,4.25s3.58-2,3.58-4.36c0-2.09-1.16-4.27-3.56-4.27S149.9,49.53,149.9,51.84Z"/><path class="cls-1" d="M160.43,46.67a16,16,0,0,1,2.77-.22,4.79,4.79,0,0,1,3.23.86,2.53,2.53,0,0,1,.88,2A2.79,2.79,0,0,1,165.2,52v0a2.65,2.65,0,0,1,1.65,2.12,14.93,14.93,0,0,0,.86,2.88h-1.5a12.8,12.8,0,0,1-.74-2.51c-.33-1.44-.93-2-2.24-2h-1.35V57h-1.45Zm1.45,4.78h1.47c1.54,0,2.52-.79,2.52-2,0-1.36-1.05-2-2.57-2a6.43,6.43,0,0,0-1.42.12Z"/><path class="cls-1" d="M175.13,52.1h-4.34v3.79h4.83V57h-6.27V46.53h6v1.14h-4.59V51h4.34Z"/><path class="cls-1" d="M179.3,53.72,178.14,57h-1.49l3.8-10.49h1.74L186,57h-1.55l-1.19-3.3ZM183,52.66l-1.09-3c-.25-.68-.41-1.3-.58-1.91h0c-.17.62-.35,1.26-.57,1.9l-1.09,3Z"/><path class="cls-2" d="M24.69,6.36S38.94,1.61,40.51,9.7c0,0-.26,4.3-9,8.26,0,0-6.22,15.93-4.59,2.77,0,0-10.23,1.76-12.33,3.59,0,0-4.2,2.78-3.91,5.24,0,0-1.31,11.22-3.51,3.92,0,0-1.07-2.91-.6-3.61,0,0-3,.59-3.79-.73,0,0,2.51-4.46,5.6-3.11,0,0,3.09-10.6,8.37-14,0,0,1.9-6,.21-8.07C17,4,13-3.43,24.69,6.36Z"/><path class="cls-3" d="M15.81,22.78l10.84-2.66-.23-.22c-3.54-6.4-11-1.19-11-1.19l4.38.53A14,14,0,0,0,15.81,22.78Z"/><path class="cls-3" d="M40.07,9.35s-10.53,4.52-8.67,8.09C31.4,17.44,39.62,13.58,40.07,9.35Z"/><path class="cls-3" d="M28.74,11.16s3,2.64,6.93-1.28C35.67,9.88,34.51,6.2,28.74,11.16Z"/></svg>